# xmcd CD database file
#
# Track frame offsets:
#	150
#	17682
#	27150
#	39882
#	55717
#	67702
#	85590
#	99062
#	111725
#	123732
#
# Disc length: 1787 seconds
#
# Revision: 1
# Processed by: cddbd v1.5PL3 Copyright (c) Steve Scherf et al.
# Submitted via: CDex 1.51
#
DISCID=6f06f90a
DTITLE=Various Artist - Stars of the British Blues Vol. 2
DYEAR=1992
DGENRE=Blues
TTITLE0=Savoy Brown Blues Band - Cold Blooded Woman
TTITLE1=All Stars(Featuring Jimmy Page) - L.A. Breakdow
TTITLE2=Eric Clapton and  Jimmy Page - Freight Loader 
TTITLE3=Albert Lee and Tony Colton - Water on My Fire
TTITLE4=All Stars(Featuring Jeff Beck)- Steelin
TTITLE5=John Mayall and the Bluesbreakers featuring Eric Clapton -Telephone Blues
TTITLE6=All Stars(Featuring Nicky Hopkins) - Piano Shuffle 
TTITLE7=All Stars(Featuring Cyril Davies) - Someday Baby 
TTITLE8=Santa Barbara Machine Head - Rubber
TTITLE9=Eric Clapton - West Coast Idea
EXTD=YEAR: 1992
EXTT0=
EXTT1=
EXTT2=
EXTT3=
EXTT4=
EXTT5=
EXTT6=
EXTT7=
EXTT8=
EXTT9=
PLAYORDER=
